HIERARCHY
ROOT Hips
{
	OFFSET 0.00 0.00 0.00
	CHANNELS 6 Xposition Yposition Zposition Xrotation Zrotation Yrotation
	JOINT RightUpLeg
	{
		OFFSET -0.1249735206 -0.0016844273 0.0032616369
		CHANNELS 3 Xrotation Zrotation Yrotation
		JOINT RightLeg
		{
			OFFSET -0.0147063732 -0.4283443093 -0.0673218220
			CHANNELS 3 Xrotation Zrotation Yrotation
			JOINT RightFoot
			{
				OFFSET -0.0022873282 -0.3852335811 -0.0630454868
				CHANNELS 3 Xrotation Zrotation Yrotation
				End Site
				{
					OFFSET 0.0002712309 0.0385248661 0.0062937364
				}
			}
		}
	}
	JOINT LeftUpLeg
	{
		OFFSET 0.1249735206 0.0016844273 -0.0032616407
		CHANNELS 3 Xrotation Zrotation Yrotation
		JOINT LeftLeg
		{
			OFFSET 0.0248899907 -0.4176042080 -0.0591978729
			CHANNELS 3 Xrotation Zrotation Yrotation
			JOINT LeftFoot
			{
				OFFSET 0.0122471750 -0.4140213728 -0.0737222806
				CHANNELS 3 Xrotation Zrotation Yrotation
				End Site
				{
					OFFSET -0.0012381524 0.0414047688 0.0073547438
				}
			}
		}
	}
	JOINT Spine
	{
		OFFSET 0.0000000000 0.0000000000 0.0000000000
		CHANNELS 3 Xrotation Zrotation Yrotation
		JOINT Spine1
		{
			OFFSET 0.0008101464 0.1884446144 -0.0214453451
			CHANNELS 3 Xrotation Zrotation Yrotation
			JOINT Spine2
			{
				OFFSET 0.0008101469 0.1884446144 -0.0214453507
				CHANNELS 3 Xrotation Zrotation Yrotation
				JOINT RightShoulder
				{
					OFFSET -0.0029725395 0.1889647245 -0.0214158930
					CHANNELS 3 Xrotation Zrotation Yrotation
					JOINT RightArm
					{
						OFFSET -0.1849959344 -0.0007016659 0.0039457185
						CHANNELS 3 Xrotation Zrotation Yrotation
						JOINT RightForeArm
						{
							OFFSET -0.0696687847 -0.2949751616 0.0055942643
							CHANNELS 3 Xrotation Zrotation Yrotation
							JOINT RightHand
							{
								OFFSET -0.0048014522 -0.2470811009 0.0651807114
								CHANNELS 3 Xrotation Zrotation Yrotation
								End Site
								{
									OFFSET 0.0002770126 0.0246534348 -0.0067328662
								}
							}
						}
					}
				}
				JOINT LeftShoulder
				{
					OFFSET 0.0045986534 0.1891027689 -0.0216089096
					CHANNELS 3 Xrotation Zrotation Yrotation
					JOINT LeftArm
					{
						OFFSET 0.1851785630 0.0043221712 -0.0046907561
						CHANNELS 3 Xrotation Zrotation Yrotation
						JOINT LeftForeArm
						{
							OFFSET 0.0528826565 -0.3070411682 0.0182247069
							CHANNELS 3 Xrotation Zrotation Yrotation
							JOINT LeftHand
							{
								OFFSET -0.0032439530 -0.2540602088 0.0869253352
								CHANNELS 3 Xrotation Zrotation Yrotation
								End Site
								{
									OFFSET 0.0003250241 0.0254057050 -0.0086933747
								}
							}
						}
					}
				}
				JOINT Neck
				{
					OFFSET 0.0008125794 0.1890105009 -0.0215097386
					CHANNELS 3 Xrotation Zrotation Yrotation
					JOINT Head
					{
						OFFSET 0.0122695006 0.2249898911 0.0474814698
						CHANNELS 3 Xrotation Zrotation Yrotation
						JOINT Nose
						{
							OFFSET -0.0016647009 -0.0081883669 0.0950489715
							CHANNELS 3 Xrotation Zrotation Yrotation
							JOINT RightEye
							{
								OFFSET -0.0317046791 0.0341215134 -0.0227140784
								CHANNELS 3 Xrotation Zrotation Yrotation
								End Site
								{
									OFFSET -0.0583346710 -0.0204650164 -0.0734699368
								}
							}
							JOINT LeftEye
							{
								OFFSET 0.0360847451 0.0300793648 -0.0218750313
								CHANNELS 3 Xrotation Zrotation Yrotation
								End Site
								{
									OFFSET 0.0572840162 -0.0273591280 -0.0720388964
								}
							}
						}
						End Site
						{
							OFFSET 0.0012269504 0.0224989653 0.0047481470
						}
					}
				}
			}
		}
	}
}
MOTION
Frames: 4
Frame Time: 0.041666667
-0.0034482661 0.9547301531 0.0419206321 179.9626464844 -177.6947021484 179.3215332031 176.7127838135 177.6210937500 179.6689453125 1.2562490702 0.7920389771 -0.1281744242 0.0000000000 -0.0000000000 0.0000000000 176.4067077637 177.3238220215 179.3203125000 178.9091033936 -179.2637176514 -179.8939666748 0.0000000000 -0.0000000000 0.0000000000 0.0714144856 3.1347718239 0.3585453928 0.0000000000 -0.0000000000 0.0000000000 0.0062241820 -0.1567033678 1.6807594299 0.0493475161 1.9033870697 0.6816210151 154.1571960449 -151.7695465088 -168.5004119873 90.0761718750 -146.5343627930 -158.5563201904 3.8593282700 0.1991641372 0.0178861320 179.9486999512 -177.4430389404 179.7056274414 0.0114276204 5.1288347244 0.3047603369 176.3733825684 178.5548706055 -179.5102081299 0.0000000000 -0.0000000000 0.0000000000 177.8375244141 179.6756286621 -179.9564514160 179.6503753662 179.8558044434 -179.2936248779 179.9723358154 178.5152282715 179.8717651367 0.0000000000 -0.0000000000 0.0000000000 0.0000000000 -0.0000000000 0.0000000000 
-0.0027352327 0.9540496469 0.0424940102 179.9471282959 -177.6461181641 179.7488708496 176.7517700195 177.5312652588 179.6516571045 1.4434406757 0.6559230089 -0.1074366271 0.0000000000 -0.0000000000 0.0000000000 176.6614990234 177.3086700439 179.3391418457 178.7654113770 -178.6515960693 -179.7813873291 0.0000000000 -0.0000000000 0.0000000000 0.0439501144 3.2421140671 0.3701719046 0.0000000000 -0.0000000000 0.0000000000 0.0055290679 -0.1325358152 1.4268134832 0.0266817175 1.0925103426 0.5878897309 149.8692321777 -148.9607086182 -165.8322601318 86.0748214722 -147.7042083740 -157.6464080811 3.4493165016 0.0565850139 -0.0217912942 179.9496917725 -177.5102996826 179.7174224854 179.9974365234 174.9541473389 -179.7031097412 176.3382568359 178.4373016357 -179.4741516113 0.0000000000 -0.0000000000 0.0000000000 177.2585144043 179.9767150879 -179.8552093506 0.2743647099 0.0631774440 0.2756808400 179.9598236084 177.8971099854 179.8180847168 0.0000000000 -0.0000000000 0.0000000000 0.0000000000 -0.0000000000 0.0000000000 
-0.0021263601 0.9531919956 0.0430001318 179.9266815186 -177.6195373535 -179.6730041504 177.1849060059 177.4216613770 179.6262664795 1.1658825874 0.3523076475 -0.0608949587 0.0348247141 0.0825639814 -0.0137078064 176.6802825928 177.2433319092 179.3295593262 179.4320831299 -178.1988067627 -179.6866912842 0.0537357032 -0.0814709514 0.0160394032 0.0124902688 3.3129544258 0.3774831891 0.0000000000 -0.0000000000 0.0000000000 0.0042515146 -0.0900117233 0.9988402724 0.0022726941 0.1506925970 0.3799898326 146.4775848389 -146.6237487793 -163.5363922119 81.3546676636 -148.5216827393 -156.2327728271 3.3250198364 -0.0211631805 -0.0441147871 179.9507141113 -177.6358184814 179.7593536377 179.7825927734 175.0779113770 -179.7563018799 177.1297760010 178.3303527832 -179.4385986328 0.1152950451 0.0534799583 0.0168845933 176.5134582520 -179.6773223877 -179.7302093506 1.4359929562 0.0201624259 -0.0760975033 179.9564056396 177.7309417725 179.8035888672 0.0000000000 -0.0000000000 0.0000000000 0.0000000000 -0.0000000000 0.0000000000 
-0.0015686910 0.9522359967 0.0434862003 179.9032135010 -177.6114196777 -178.9962005615 177.6722717285 177.3723602295 179.6119537354 0.6211078167 0.3209311366 -0.0544231609 0.0329132937 0.0833260044 -0.0138200345 176.9535217285 177.0752868652 179.3243865967 179.2749481201 -178.1983642578 -179.6887359619 0.0525680967 -0.0798774958 0.0157230701 179.9783020020 176.6461791992 -179.6187133789 0.0000000000 -0.0000000000 0.0000000000 0.0023106267 -0.0346851721 0.4602838755 179.9799499512 -179.1469879150 -179.8358612061 143.3967895508 -144.5122375488 -161.3252258301 76.5176086426 -148.8443298340 -154.3838348389 3.3980982304 -0.0431378968 -0.0516720898 179.9517822266 -177.7924652100 179.8197174072 179.1715545654 175.3072052002 -179.8986816406 178.9747619629 178.0870208740 -179.3513031006 0.1282777935 0.0651906431 0.0207470413 175.0391540527 -179.1942291260 -179.5201568604 3.1671633720 -0.0210986324 -0.6127659678 179.9529113770 177.5671386719 179.7893524170 0.0000000000 -0.0000000000 0.0000000000 0.0000000000 -0.0000000000 0.0000000000 
